M48
; DRILL file {KiCad 7.0.7} date Mon Aug 28 12:57:15 2023
; FORMAT={-:-/ absolute / inch / decimal}
; #@! TF.CreationDate,2023-08-28T12:57:15-03:00
; #@! TF.GenerationSoftware,Kicad,Pcbnew,7.0.7
; #@! TF.FileFunction,Plated,1,2,PTH
FMAT,2
INCH
; #@! TA.AperFunction,Plated,PTH,ComponentDrill
T1C0.0276
; #@! TA.AperFunction,Plated,PTH,ComponentDrill
T2C0.0315
; #@! TA.AperFunction,Plated,PTH,ComponentDrill
T3C0.0394
; #@! TA.AperFunction,Plated,PTH,ComponentDrill
T4C0.0433
; #@! TA.AperFunction,Plated,PTH,ComponentDrill
T5C0.0512
%
G90
G05
T1
X4.7Y-2.4
X4.75Y-2.35
X4.8Y-2.4
T2
X2.8Y-2.95
X2.8Y-3.15
X2.85Y-2.1
X2.95Y-2.1
X3.05Y-2.1
X3.2Y-2.95
X3.2Y-3.15
X3.3516Y-2.05
X3.4Y-2.9516
X3.4Y-3.1484
X3.425Y-2.75
X3.5484Y-2.05
X3.55Y-2.25
X3.55Y-2.55
X3.65Y-2.25
X3.65Y-2.55
X3.65Y-2.9531
X3.65Y-3.15
X3.75Y-1.65
X3.75Y-2.05
X3.75Y-2.25
X3.75Y-2.55
X3.825Y-2.75
X3.85Y-2.25
X3.85Y-2.55
X3.85Y-2.95
X3.85Y-3.1469
X3.9031Y-2.0
X3.95Y-2.25
X3.95Y-2.55
X4.0Y-1.4
X4.0Y-1.8
X4.05Y-2.25
X4.05Y-2.55
X4.05Y-2.75
X4.05Y-3.15
X4.1Y-2.0
X4.15Y-2.25
X4.15Y-2.55
X4.2Y-1.45
X4.25Y-1.65
X4.25Y-2.05
X4.25Y-2.25
X4.25Y-2.55
X4.3Y-2.8016
X4.3Y-2.9984
X4.45Y-1.65
X4.45Y-2.05
X4.5Y-2.8016
X4.5Y-2.9984
X4.6Y-1.45
X4.65Y-2.05
X4.75Y-2.05
X4.8Y-1.45
X4.8Y-1.85
X4.85Y-2.05
X5.0Y-2.05
X5.0Y-2.45
X5.2Y-2.05
X5.2Y-2.45
T3
X2.85Y-2.5
X2.95Y-2.5
X3.05Y-2.5
T4
X4.8Y-2.7
X5.2Y-2.7
T5
X2.8Y-1.4016
X2.8Y-1.5984
X5.25Y-1.4031
X5.25Y-1.6
X5.25Y-3.1516
X5.25Y-3.3484
T0
M30
